<?xml version="1.0" encoding="UTF-8" standalone="no"?>
<!-- Created with Inkscape (http://www.inkscape.org/) -->

<svg
   width="570"
   height="235.86099"
   viewBox="0 0 150.8125 62.404889"
   version="1.1"
   id="svg1248"
   xmlns="http://www.w3.org/2000/svg"
   xmlns:svg="http://www.w3.org/2000/svg">
  <defs
     id="defs1245" />
  <g
     id="layer1">
    <path
       d="m 86.802386,37.791841 c 0,0 -0.0032,0 -0.0032,0 -0.279943,0 -0.527117,0.09235 -0.759436,0.279996 -0.172742,0.136967 -0.291901,0.321666 -0.387203,0.527171 0,0 0.01193,0 0.01193,0 0.0953,-0.205505 0.214461,-0.390204 0.384196,-0.527171 0.232319,-0.187647 0.479493,-0.27699 0.753536,-0.279996 z"
       id="path3550"
       style="fill:#bd0000;fill-rule:evenodd;stroke-width:0.453473pt" />
    <path
       d="m 86.811293,37.791841 c -0.0032,0 -0.0059,0 -0.0089,0 0.288898,0.0032 0.479498,0.101305 0.607563,0.312764 0.05658,0.08934 0.08634,0.223363 0.08634,0.393097 0,0.02984 -0.0059,0.06854 -0.0089,0.101306 0,0 0.01188,0 0.01188,0 0,-0.03279 0.0059,-0.07148 0.0059,-0.101306 0,-0.169734 -0.0268,-0.303754 -0.08339,-0.393097 -0.128065,-0.21446 -0.321662,-0.312764 -0.610561,-0.312764 z"
       id="path3554"
       style="fill:#bd0000;fill-rule:evenodd;stroke-width:0.453473pt" />
    <g
       transform="matrix(0.17465701,0,0,0.17465672,134.43041,179.00686)"
       id="g3556"
       style="fill:#000000;fill-opacity:1">
      <g
         transform="matrix(1.705222,0,0,1.705222,-769.6823,-728.9956)"
         id="g3558"
         style="fill-rule:evenodd;stroke-width:1pt;fill:#000000;fill-opacity:1">
        <path
           d="m 0,36 c 0,0 7.46,0 7.46,0 0,0 3.35,-14 3.35,-14 0,0 12.12,0 12.12,0 0,0 1.56,-6 1.56,-6 0,0 -12.17,0 -12.17,0 0,0 2.02,-9 2.02,-9 0,0 12.95,0 12.95,0 0,0 1.56,-7 1.56,-7 C 28.85,0 8.4,0 8.4,0 8.4,0 0,36 0,36 Z"
           id="path3560"
           style="fill:#000000;fill-opacity:1" />
      </g>
      <g
         transform="matrix(1.705222,0,0,1.705222,-725.4318,-711.9434)"
         id="g3562"
         style="fill-rule:evenodd;stroke-width:1pt;fill:#000000;fill-opacity:1">
        <path
           d="m 7.51,26 c 0,0 2.24,-9.4 2.24,-9.4 1.18,-5.09 3.67,-9.6 8.38,-9.6 0.42,0 0.83,0.21 1.14,0.26 0,0 1.82,-7.21 1.82,-7.21 -0.42,0 -0.88,-0.05 -1.4,-0.05 -3.47,0 -6.38,2.44 -8.32,5.94 0,0 -0.2,0 -0.2,0 C 11.46,4.23 11.71,2.61 11.9,1 11.9,1 5.47,1 5.47,1 5.1,3.08 4.53,7.15 3.66,10.82 3.66,10.82 0,26 0,26 c 0,0 7.51,0 7.51,0 z"
           id="path3564"
           style="fill:#000000;fill-opacity:1" />
      </g>
      <g
         transform="matrix(1.705222,0,0,1.705222,-690.253,-711.9434)"
         id="g3566"
         style="fill-rule:evenodd;stroke-width:1pt;fill:#000000;fill-opacity:1">
        <path
           d="M 20.06,19.25 C 17.99,20.26 15.63,20 12.88,20 10.71,20 9.03,19.62 8.11,18.88 7.63,18.07 7.43,16.81 7.47,16 17.6,16.27 23.99,13.93 24.31,7.53 24.55,2.7 21.02,0 15.89,0 6.73,0 0.73,8.08 0.34,15.86 0,22.65 3.52,26 10.78,26 c 2.79,0 6.49,-0.32 9.52,-1.23 0,0 -0.24,-5.52 -0.24,-5.52 z M 17.32,7.53 C 17.2,9.91 14.26,10.05 8.47,10 9.1,7.91 11.22,6 14.69,6 c 1.71,0 2.69,0.65 2.63,1.53 z"
           id="path3568"
           style="fill:#000000;fill-opacity:1" />
      </g>
      <g
         transform="matrix(1.705222,0,0,1.705222,-645.0305,-711.9434)"
         id="g3570"
         style="fill-rule:evenodd;stroke-width:1pt;fill:#000000;fill-opacity:1">
        <path
           d="M 20.05,19.25 C 17.98,20.26 15.62,20 12.88,20 10.7,20 9.03,19.62 8.11,18.88 7.63,18.07 7.42,16.81 7.46,16 17.6,16.27 23.98,13.93 24.31,7.53 24.55,2.7 21.02,0 15.89,0 6.72,0 0.72,8.08 0.33,15.86 0,22.65 3.52,26 10.77,26 c 2.8,0 6.5,-0.32 9.53,-1.23 0,0 -0.25,-5.52 -0.25,-5.52 z M 17.32,7.53 C 17.2,9.91 14.26,10.05 8.46,10 9.1,7.91 11.21,6 14.68,6 c 1.71,0 2.7,0.65 2.64,1.53 z"
           id="path3572"
           style="fill:#000000;fill-opacity:1" />
      </g>
      <g
         transform="matrix(1.705222,0,0,1.705222,-583.796,-711.9434)"
         id="g3574"
         style="fill-rule:evenodd;stroke-width:1pt;fill:#000000;fill-opacity:1">
        <path
           d="M 22.74,26 C 22.8,22.83 23.56,17.85 24.35,14.58 24.35,14.58 27.56,1 27.56,1 25.52,0.31 22.34,0 19.28,0 6.86,0 0.7,9.2 0.27,17.82 0,23.23 2.93,26 7.49,26 c 2.95,0 6.28,-1.43 8.87,-5.73 0,0 0.11,0 0.11,0 -0.2,2.07 -0.44,4.08 -0.57,5.73 0,0 6.84,0 6.84,0 z M 17.61,11.72 C 16.15,18.08 13.17,20 10.95,20 8.88,20 7.98,18.53 8.1,16.39 8.34,11.56 12.16,6 16.98,6 c 0.78,0 1.39,-0.14 1.96,-0.28 0,0 -1.33,6 -1.33,6 z"
           id="path3576"
           style="fill:#000000;fill-opacity:1" />
      </g>
      <g
         transform="matrix(1.705222,0,0,1.705222,-536.6807,-711.9434)"
         id="g3578"
         style="fill-rule:evenodd;stroke-width:1pt;fill:#000000;fill-opacity:1">
        <path
           d="m 0,24.82 c 1.44,1.12 4.46,1.13 7.61,1.18 6.73,0.05 11.81,-2.89 12.11,-8.29 0.17,-3.6 -2.62,-5.73 -5.35,-7.16 C 12.4,9.6 11.41,8.69 11.46,7.63 11.53,6.2 12.87,6 14.84,6 c 2.22,0 4,0.27 5.02,0.47 0,0 2.02,-5.42 2.02,-5.42 C 20.73,0.36 18.43,0 15.48,0 8.95,0 4.17,3.45 3.9,8.69 c -0.16,3.24 2.17,5.42 4.99,6.9 2.28,1.17 3.06,2.07 3,3.34 C 11.82,20.21 10.68,20 8.61,20 6.18,20 3.49,19.68 2.07,19.46 2.07,19.46 0,24.82 0,24.82 Z"
           id="path3580"
           style="fill:#000000;fill-opacity:1" />
      </g>
      <g
         transform="matrix(1.705222,0,0,1.705222,-481.3463,-730.7008)"
         id="g3582"
         style="fill-rule:evenodd;stroke-width:1pt;fill:#000000;fill-opacity:1">
        <path
           d="m 7.45,37 c 0,0 6.05,-25 6.05,-25 0,0 -7.41,0 -7.41,0 0,0 -6.09,25 -6.09,25 0,0 7.45,0 7.45,0 z M 10.92,9 C 13.46,9 15.72,6.9 15.86,3.3 15.98,0.86 14.4,0 12.07,0 9.64,0 7.42,1.58 7.29,3.94 7.17,6.32 8.75,9 10.92,9 Z"
           id="path3584"
           style="fill:#000000;fill-opacity:1" />
      </g>
      <g
         transform="matrix(1.705222,0,0,1.705222,-456.9787,-710.7668)"
         id="g3586"
         style="fill-rule:evenodd;stroke-width:1pt;fill:#000000;fill-opacity:1">
        <path
           d="m 7.46,25.31 c 0,0 2.64,-11.26 2.64,-11.26 1.37,-5.73 4.32,-7.74 6.75,-7.74 1.92,0 2.48,0.82 2.39,2.01 -0.05,0.96 -0.2,1.97 -0.4,2.87 0,0 -3.36,14.12 -3.36,14.12 0,0 7.46,0 7.46,0 0,0 3.54,-14.81 3.54,-14.81 C 26.75,9.22 27.05,7.31 27.11,6.15 27.33,1.64 25.08,0 20.94,0 c -3.32,0 -6.55,1.54 -9.1,4.88 0,0 -0.1,0 -0.1,0 0,0 0.68,-4.57 0.68,-4.57 0,0 -6.58,0 -6.58,0 C 5.41,2.45 4.86,5.04 4.08,8.06 4.08,8.06 0,25.31 0,25.31 c 0,0 7.46,0 7.46,0 z"
           id="path3588"
           style="fill:#000000;fill-opacity:1" />
      </g>
      <g
         transform="matrix(1.705222,0,0,1.705222,-389.5201,-728.9956)"
         id="g3590"
         style="fill-rule:evenodd;stroke-width:1pt;fill:#000000;fill-opacity:1">
        <path
           d="m 0,36 c 0,0 7.46,0 7.46,0 0,0 3.36,-14 3.36,-14 0,0 12.11,0 12.11,0 0,0 1.56,-6 1.56,-6 0,0 -12.17,0 -12.17,0 0,0 2.02,-9 2.02,-9 0,0 12.95,0 12.95,0 0,0 1.56,-7 1.56,-7 C 28.85,0 8.4,0 8.4,0 8.4,0 0,36 0,36 Z"
           id="path3592"
           style="fill:#000000;fill-opacity:1" />
      </g>
      <g
         transform="matrix(1.705222,0,0,1.705222,-345.2696,-711.9434)"
         id="g3594"
         style="fill-rule:evenodd;stroke-width:1pt;fill:#000000;fill-opacity:1">
        <path
           d="m 7.51,26 c 0,0 2.24,-9.4 2.24,-9.4 1.18,-5.09 3.67,-9.6 8.38,-9.6 0.42,0 0.83,0.21 1.14,0.26 0,0 1.82,-7.21 1.82,-7.21 -0.42,0 -0.88,-0.05 -1.4,-0.05 -3.47,0 -6.38,2.44 -8.32,5.94 0,0 -0.2,0 -0.2,0 C 11.46,4.23 11.71,2.61 11.9,1 11.9,1 5.47,1 5.47,1 5.11,3.08 4.53,7.15 3.66,10.82 3.66,10.82 0,26 0,26 c 0,0 7.51,0 7.51,0 z"
           id="path3596"
           style="fill:#000000;fill-opacity:1" />
      </g>
      <g
         transform="matrix(1.705222,0,0,1.705222,-310.0908,-711.9434)"
         id="g3598"
         style="fill-rule:evenodd;stroke-width:1pt;fill:#000000;fill-opacity:1">
        <path
           d="M 20.06,19.25 C 17.99,20.26 15.63,20 12.88,20 10.71,20 9.03,19.62 8.11,18.88 7.63,18.07 7.43,16.81 7.47,16 17.6,16.27 23.99,13.93 24.31,7.53 24.55,2.7 21.02,0 15.89,0 6.73,0 0.73,8.08 0.34,15.86 0,22.65 3.53,26 10.78,26 c 2.79,0 6.5,-0.32 9.52,-1.23 0,0 -0.24,-5.52 -0.24,-5.52 z M 17.32,7.53 C 17.2,9.91 14.26,10.05 8.47,10 9.1,7.91 11.22,6 14.69,6 c 1.71,0 2.69,0.65 2.63,1.53 z"
           id="path3600"
           style="fill:#000000;fill-opacity:1" />
      </g>
      <g
         transform="matrix(1.705222,0,0,1.705222,-264.8684,-711.9434)"
         id="g3602"
         style="fill-rule:evenodd;stroke-width:1pt;fill:#000000;fill-opacity:1">
        <path
           d="M 20.05,19.25 C 17.98,20.26 15.62,20 12.88,20 10.7,20 9.03,19.62 8.11,18.88 7.63,18.07 7.42,16.81 7.46,16 17.6,16.27 23.98,13.93 24.31,7.53 24.55,2.7 21.02,0 15.89,0 6.72,0 0.72,8.08 0.33,15.86 0,22.65 3.52,26 10.77,26 c 2.8,0 6.5,-0.32 9.53,-1.23 0,0 -0.25,-5.52 -0.25,-5.52 z M 17.32,7.53 C 17.2,9.91 14.26,10.05 8.46,10 9.1,7.91 11.21,6 14.68,6 c 1.71,0 2.7,0.65 2.64,1.53 z"
           id="path3604"
           style="fill:#000000;fill-opacity:1" />
      </g>
      <g
         transform="matrix(1.705222,0,0,1.705222,-219.8846,-730.7008)"
         id="g3606"
         style="fill-rule:evenodd;stroke-width:1pt;fill:#000000;fill-opacity:1">
        <path
           d="M 23.31,0 C 23.31,0 20.5,11.36 20.5,11.36 19.48,10.94 18.15,11 17.11,11 7.53,11 0.75,19.2 0.3,28.08 0,34.34 3.34,37 7.64,37 c 3.01,0 6.18,-1.33 8.58,-4.77 0,0 0.1,0 0.1,0 0,0 -0.57,4.77 -0.57,4.77 0,0 6.78,0 6.78,0 0.31,-3 0.96,-6.57 1.69,-9.83 0,0 6.49,-27.17 6.49,-27.17 0,0 -7.4,0 -7.4,0 z M 17.47,24.42 C 16.3,29.35 13.54,31 11.36,31 9.19,31 7.98,29.49 8.13,26.8 8.38,21.82 11.8,17 16.25,17 c 1.25,0 2.32,0.19 2.91,0.47 0,0 -1.69,6.95 -1.69,6.95 z"
           id="path3608"
           style="fill:#000000;fill-opacity:1" />
      </g>
      <g
         transform="matrix(1.705222,0,0,1.705222,-169.2225,-711.9434)"
         id="g3610"
         style="fill-rule:evenodd;stroke-width:1pt;fill:#000000;fill-opacity:1">
        <path
           d="M 10.61,26 C 19.31,26 26.02,19.41 26.49,10.44 26.78,4.5 23.08,0 16.25,0 7.23,0 0.76,7.3 0.31,16.12 0,22.54 4.14,26 10.61,26 Z m 1.17,-6 C 9.24,20 7.84,18.38 7.99,15.96 8.19,11.93 10.68,6 14.97,6 c 2.96,0 3.87,2.27 3.75,4.5 -0.22,4.4 -2.9,9.5 -6.94,9.5 z"
           id="path3612"
           style="fill:#000000;fill-opacity:1" />
      </g>
      <g
         transform="matrix(1.705222,0,0,1.705222,-120.5213,-711.9434)"
         id="g3614"
         style="fill-rule:evenodd;stroke-width:1pt;fill:#000000;fill-opacity:1">
        <path
           d="M 7.2,26 C 7.2,26 9.9,14.58 9.9,14.58 11.03,9.49 13.85,6 16.38,6 c 1.82,0 2.32,1.33 2.23,3.07 -0.05,0.9 -0.25,1.91 -0.46,2.91 0,0 -3.34,14.02 -3.34,14.02 0,0 7.2,0 7.2,0 0,0 2.7,-11.47 2.7,-11.47 C 25.95,9.28 28.61,6 31.09,6 c 1.71,0 2.42,1.22 2.34,2.96 -0.05,1.01 -0.26,2.12 -0.52,3.13 0,0 -3.24,13.91 -3.24,13.91 0,0 7.25,0 7.25,0 0,0 3.49,-14.81 3.49,-14.81 0.27,-1.33 0.58,-3.4 0.63,-4.46 C 41.26,2.33 39.11,0 35.23,0 31.91,0 28.68,1.5 26.23,4.66 26.14,2.38 24.51,0 20.47,0 17.2,0 14.08,1.48 11.58,4.83 c 0,0 -0.1,0 -0.1,0 0,0 0.67,-3.83 0.67,-3.83 0,0 -6.42,0 -6.42,0 C 5.31,3.14 4.8,5.73 4.02,8.75 4.02,8.75 0,26 0,26 c 0,0 7.2,0 7.2,0 z"
           id="path3616"
           style="fill:#000000;fill-opacity:1" />
      </g>
    </g>
    <g
       id="path3618"
       transform="matrix(0.45347317,0,0,0.45347243,-15.459931,-307.66079)">
      <path
         style="color:#000000;fill:#ffffff;fill-opacity:0;fill-rule:evenodd;stroke-width:3.28387;-inkscape-stroke:none"
         d="m 242.27371,772.00406 c 0.26666,0.68537 0.5332,1.3697 0.81093,2.03897 0.42773,0.90933 0.922,1.77974 1.51639,2.59227 3.21051,4.36413 8.58716,6.75366 15.41353,7.34862 0,0 7.34302,0 7.34302,0 2.32173,-0.18116 4.75464,-0.51882 7.27636,-1.01207 4.34906,-0.85043 8.95929,-2.15678 13.74726,-3.90261 3.62705,-1.32245 7.3541,-2.88712 11.13662,-4.70567 8.23729,-3.94873 16.74671,-9.04148 25.09506,-15.18751 2.74946,-2.02242 5.38772,-4.09758 7.92063,-6.20767 2.32173,-1.93179 4.54905,-3.89371 6.67649,-5.8772 5.93759,-5.72219 10.42009,-11.53376 12.95848,-16.63667 2.64386,-5.31398 3.17158,-9.85744 1.00533,-12.71967 -1.32747,-1.7569 -3.54931,-2.69843 -6.40983,-2.91999 12.88633,-9.6692 20.3959,-21.3985 17.70204,-28.79369 -0.85545,-2.36008 -2.73838,-4.12086 -5.43784,-5.09458 -1.19973,-0.43149 -2.54946,-0.70488 -4.02144,-0.82931 0,0 -3.96585,0 -3.96585,0 -5.53772,0.39942 -13.59076,2.38234 -20.42273,5.73052"
         id="path1516" />
      <path
         style="color:#000000;fill:#010001;fill-opacity:1;fill-rule:evenodd;-inkscape-stroke:none"
         d="m 350.98242,678.45508 -0.0605,0.004 c -5.8127,0.41926 -13.96562,2.43472 -21.02539,5.89454 l 1.44336,2.94921 c 6.59662,-3.23283 14.53404,-5.18171 19.79688,-5.56445 h 3.76172 c 1.34075,0.11572 2.54253,0.36227 3.57226,0.73242 2.3344,0.84204 3.76961,2.22902 4.45117,4.10938 v 0.002 l 0.002,0.002 c 1.08343,2.97425 0.14439,7.28215 -2.86133,12.11329 -3.00572,4.83114 -7.97251,10.06948 -14.2832,14.80468 l -3.48438,2.61328 4.3418,0.33594 c 2.56871,0.19896 4.26024,0.99451 5.22656,2.27344 l 0.002,0.002 c 0.79211,1.0466 1.14069,2.43263 0.97461,4.30274 -0.16607,1.8701 -0.88242,4.16445 -2.14062,6.69336 -2.4162,4.85726 -6.7931,10.56101 -12.62695,16.18359 -7.2e-4,6.9e-4 -10e-4,10e-4 -0.002,0.002 -2.09866,1.95599 -4.2963,3.89212 -6.58789,5.79883 -2.50886,2.09005 -5.12034,4.14466 -7.8418,6.14649 h -0.002 c -8.26809,6.08694 -16.69155,11.12791 -24.83008,15.02929 h -0.002 c -3.73438,1.79541 -7.41273,3.34086 -10.98828,4.64453 -4.71694,1.71993 -9.24727,3.00239 -13.5,3.83399 -2.45007,0.47923 -4.80448,0.80392 -7.04492,0.98047 h -7.1543 c -6.49995,-0.57382 -11.33733,-2.79602 -14.19336,-6.67578 l -0.002,-0.004 c -0.51559,-0.70536 -0.95443,-1.47556 -1.34375,-2.30078 -0.26102,-0.63108 -0.51591,-1.2862 -0.77539,-1.95313 l -3.06055,1.19141 c 0.2668,0.68574 0.53716,1.38052 0.82422,2.07226 l 0.0137,0.0352 0.0176,0.0352 c 0.46333,0.985 1.00758,1.94985 1.67578,2.86328 l 0.002,0.002 h 0.002 c 3.5595,4.83852 9.46088,7.39022 16.59179,8.01172 l 0.0723,0.006 h 7.47851 l 0.0625,-0.004 c 2.3908,-0.18654 4.88642,-0.53276 7.46485,-1.03711 4.44537,-0.86926 9.13514,-2.20092 13.99414,-3.97265 3.67854,-1.34123 7.45451,-2.92589 11.28516,-4.76758 8.33604,-3.99607 16.92883,-9.1406 25.35742,-15.3457 2.77745,-2.04302 5.44109,-4.13746 7.99804,-6.26758 2.34501,-1.95116 4.59557,-3.93248 6.7461,-5.9375 l 0.01,-0.01 0.01,-0.01 c 6.04025,-5.82113 10.62878,-11.73994 13.28906,-17.08789 1.38565,-2.78507 2.25547,-5.41957 2.47266,-7.86524 0.21719,-2.44567 -0.25477,-4.76054 -1.62891,-6.57617 h 0.002 c -1.04394,-1.38165 -2.57522,-2.19876 -4.27539,-2.77539 5.32052,-4.35849 9.8072,-8.9778 12.64258,-13.53516 3.29718,-5.29959 4.76667,-10.55367 3.15625,-14.97461 -1.02979,-2.83855 -3.35825,-4.97109 -6.42187,-6.07617 l -0.002,-0.002 c -1.36093,-0.48947 -2.85027,-0.78559 -4.43945,-0.91992 l -0.0684,-0.006 z"
         id="path1518" />
    </g>
    <path
       d="m 13.007873,1.9095922 c 0,0 -10.3588649,45.1954708 -10.3588649,45.1954708 0.00299,0 27.2498459,0 27.2558049,0 11.982956,0 47.922519,0 47.922519,0 5.4e-5,0 24.924568,0 24.924568,0 -2.969325,-0.259137 -5.313641,-1.301516 -6.710456,-3.201638 -0.259083,-0.351482 -0.473181,-0.730086 -0.660778,-1.12619 -0.119159,-0.29185 -0.231181,-0.58634 -0.34439,-0.88414 -0.297851,-0.947136 -0.416602,-1.998058 -0.362974,-3.117931 0.14893,-3.121251 1.613503,-6.833957 4.151007,-10.721839 2.695331,-4.131741 6.601751,-8.462258 11.438481,-12.480844 1.08411,-0.90003 2.20507,-1.788827 3.37847,-2.652574 1.45045,-1.06707 2.91207,-2.049872 4.37437,-2.9689517 5.38772,-3.3919783 10.76207,-5.7654348 15.52437,-6.9710276 -4.55084,1.4846552 -9.66342,4.0051229 -14.71461,7.4363903 -0.1817,0.122682 -0.36111,0.248367 -0.53986,0.372292 -2.80253,1.941841 -5.34154,4.004143 -7.55737,6.086838 -7.13007,6.704127 -10.898687,13.65098 -9.18615,17.720813 0.12211,0.279942 0.26767,0.547255 0.43741,0.800438 1.84059,2.707231 6.40219,3.175182 12.18306,1.72179 0.39315,-0.09825 0.78631,-0.209595 1.19131,-0.325752 1.84655,-0.533075 3.80703,-1.253117 5.82632,-2.140621 0.48545,-0.214461 0.97612,-0.434822 1.47053,-0.670142 0.0506,-0.02381 0.0983,-0.04762 0.14887,-0.07444 6.37357,-3.166802 11.27175,-6.810661 12.33199,-8.999994 0.23233,-0.476232 0.28818,-0.882272 0.13029,-1.200627 -0.75648,-1.533835 -6.04999,-0.497609 -12.46228,2.280231 -0.51521,0.223412 -1.03643,0.45325 -1.5636,0.698044 0.42887,-0.398172 0.87529,-0.797898 1.33092,-1.191308 0.72672,-0.626042 1.47912,-1.238211 2.28028,-1.842822 1.25385,-0.949462 2.52146,-1.807822 3.7694,-2.568762 5.8434,-4.408473 8.7975,-8.578628 8.18099,-10.12618 -0.11616,-0.291588 -0.36334,-0.492127 -0.74459,-0.614292 -1.21812,-0.387456 -3.44141,0.07501 -6.1427,1.182044 -2.22779,0.913751 -4.78652,2.268895 -7.3806,3.955536 0,0 -0.35365,0.232685 -0.35365,0.232685 0,0 -0.0652,0.03723 -0.0652,0.03723 0,0 -1.24711,0.828336 -1.24711,0.828336 0,0 0.71663,-1.312281 0.71663,-1.312281 1.06325,-1.946349 2.79514,-3.977072 4.95139,-5.8635259 1.58146,-1.3792681 3.3882,-2.6788158 5.333,-3.8159297 0.73563,-0.4306809 1.47017,-0.8306617 2.20579,-1.1913083 0.75354,-0.3681471 1.50739,-0.6953002 2.24302,-0.9865792 2.13725,-0.8452136 4.48509,-1.9125971 6.2643,-2.0522575 -0.16203,0 -5.30562,0.5538304 -5.30562,0.5538304 0,0 -16.84597,0 -16.84597,0 0,0 -74.280387,0 -74.280387,0 0,0 -33.13795,0 -33.13795,0 z m 80.688167,0.065168 c -0.291851,4.4546003 0.571843,10.9792618 2.53155,18.2233468 0.348476,1.288991 0.727811,2.600805 1.144775,3.927634 0.259133,0.819329 0.526446,1.625821 0.800435,2.419838 -0.160833,0.236464 -0.322751,0.471471 -0.474682,0.707363 -2.445155,3.747238 -3.874375,7.288602 -4.234759,10.368129 -1.033484,-3.460769 -1.811503,-7.251437 -2.252334,-11.270953 -0.125063,-1.151661 -0.22295,-2.290479 -0.288481,-3.415686 -0.4825,-8.17331 0.584472,-15.5824229 2.773496,-20.9596718 z M 44.898658,7.7730633 c 0.05575,-0.00136 0.110725,0 0.167513,0 0,0 11.010388,0 11.010388,0 0.941134,0 1.668944,0.1764144 2.18716,0.5305355 0.515214,0.3561936 0.708452,0.8169487 0.586336,1.3774543 0,0 -1.312283,5.9286439 -1.312283,5.9286439 0,0 -3.881105,0 -3.881105,0 0,0 1.275067,-5.7704002 1.275067,-5.7704002 0,0 -9.716637,0 -9.716637,0 0,0 -3.508813,15.8593142 -3.508813,15.8593142 0,0 -1.265802,5.742548 -1.265802,5.742548 0,0 9.707369,0 9.707369,0 0,0 0.0093,-0.03723 0.0093,-0.03723 0,0 1.94521,-8.785997 1.94521,-8.785997 0,0 -4.560512,0 -4.560512,0 0,0 0.437461,-1.982377 0.437461,-1.982377 0,-5e-5 8.441571,0 8.441571,0 0,-5e-5 -2.419842,10.963784 -2.419842,10.963784 -0.03279,0.156072 -0.09012,0.297442 -0.167563,0.437465 -0.199555,0.363331 -0.547618,0.67454 -1.033066,0.930725 -0.673095,0.35438 -1.478708,0.530481 -2.419896,0.530481 0,0 -11.001019,0 -11.001019,0 -0.941133,0 -1.668944,-0.176101 -2.18721,-0.530481 -0.515213,-0.354434 -0.711427,-0.807063 -0.586336,-1.36819 0,0 4.849052,-21.9182995 4.849052,-21.9182995 0.125064,-0.5605056 0.515214,-1.0212608 1.191256,-1.3774543 0.02385,-0.012833 0.05068,-0.015735 0.07449,-0.027889 0.617086,-0.3090868 1.341274,-0.4828575 2.177891,-0.5026334 z m 17.255484,0 c -5.4e-5,0 13.858322,0 13.858322,0 0.929225,0 1.659626,0.1764144 2.177895,0.5305355 0.521164,0.3561936 0.720719,0.8169487 0.595656,1.3774543 0,0 -2.587405,11.6897799 -2.587405,11.6897799 -0.122111,0.556937 -0.52158,1.011325 -1.200629,1.36814 -0.679049,0.358003 -1.478345,0.5398 -2.410577,0.5398 0,0 -10.070342,0 -10.070342,0 0,0 -1.94516,8.776628 -1.94516,8.776628 0,0 -0.316438,1.442623 -0.316438,1.442623 0,0 -3.797348,0 -3.797348,0 0,0 0.288536,-1.303017 0.288536,-1.303017 0,0 5.40749,-24.4219437 5.40749,-24.4219437 z m 19.144785,0 c 0,0 3.797298,0 3.797298,0 0,0 -4.299882,19.4240247 -4.299882,19.4240247 0,0 -0.940046,4.244071 -0.940046,4.244071 0,0 9.083816,0 9.083816,0 0.0953,0.696597 0.206589,1.380823 0.325753,2.056865 0,0 -13.662911,0 -13.662911,0 0,0 1.079602,-4.876942 1.079602,-4.876942 0,0 4.61637,-20.8480187 4.61637,-20.8480187 z M 65.495392,9.8392968 c 0,0 -2.522282,11.3732922 -2.522282,11.3732922 0,0 9.465418,0 9.465418,0 0,0 2.512918,-11.3732922 2.512918,-11.3732922 0,0 -9.456054,0 -9.456054,0 z M 45.311741,36.682271 c 0.03719,-0.0014 0.07428,0 0.111708,0 0.440776,0 0.825748,0.07738 1.135456,0.223362 0.330623,0.154879 0.567032,0.384921 0.69805,0.68873 0.128065,0.294847 0.161554,0.629505 0.09307,0.995843 0,0 -0.02789,0.139611 -0.02789,0.139611 0,0 -1.088921,0 -1.088921,0 -4.9e-5,0 0.0093,-0.130292 0.0093,-0.130292 0.02816,-0.255976 -0.0036,-0.457236 -0.102335,-0.595654 -0.01288,-0.01732 -0.03156,-0.04027 -0.04659,-0.05585 -0.02453,-0.02512 -0.06144,-0.05373 -0.09302,-0.07444 -0.152394,-0.09602 -0.390717,-0.148925 -0.698045,-0.148925 -0.408062,0 -0.712955,0.07107 -0.921412,0.214044 -0.202553,0.139973 -0.330618,0.296353 -0.372292,0.484 -0.04172,0.190594 0.02676,0.290762 0.07444,0.344335 0.0014,0.0014 0.0075,0.0077 0.0093,0.0093 0.06036,0.0514 0.269902,0.172016 0.921412,0.325757 0.589701,0.142971 0.980214,0.271399 1.200629,0.381606 0.33357,0.169735 0.566615,0.389787 0.688726,0.660773 0.122116,0.268093 0.14893,0.581887 0.07444,0.92141 -0.07444,0.330623 -0.243085,0.635515 -0.493266,0.921411 -0.247175,0.285896 -0.561749,0.512261 -0.940045,0.670142 -0.37524,0.154879 -0.786976,0.24195 -1.209894,0.24195 -0.536128,0 -0.966496,-0.08112 -1.303019,-0.24195 -0.351432,-0.166783 -0.604974,-0.430006 -0.753849,-0.772531 -0.142976,-0.33352 -0.173512,-0.712179 -0.09313,-1.12614 0,0 0.02793,-0.130292 0.02793,-0.130292 0,0 1.070337,0 1.070337,0 0,0 -0.0093,0.130292 -0.0093,0.130292 -0.0268,0.247174 -3.63e-4,0.446729 0.06512,0.595654 0.06258,0.142975 0.181694,0.261359 0.372293,0.353654 0.202553,0.0983 0.455681,0.148929 0.74458,0.148929 0.259133,0 0.495905,-0.04353 0.707364,-0.120972 0.208457,-0.07449 0.374156,-0.172742 0.493265,-0.297855 0.116162,-0.125063 0.184283,-0.257268 0.214049,-0.400194 0.02979,-0.128065 0.02272,-0.236409 -0.02789,-0.325752 -0.05658,-0.0953 -0.168651,-0.179829 -0.34439,-0.251264 0,-5.5e-5 -0.912093,-0.269952 -0.912093,-0.269952 -0.50926,-0.128065 -0.852149,-0.250181 -1.0517,-0.372292 -0.271041,-0.160783 -0.466451,-0.367063 -0.567757,-0.614238 -0.101252,-0.244226 -0.112017,-0.514904 -0.04649,-0.809752 0.06849,-0.315712 0.220728,-0.616101 0.456049,-0.884139 0.238273,-0.271041 0.545755,-0.483638 0.912093,-0.623607 0.323889,-0.12144 0.66471,-0.192671 1.023748,-0.204729 z m 9.772542,0.01859 c 0.05891,-0.0045 0.114297,0 0.176827,0 0,0 0.670093,0.07444 0.670093,0.07444 0,0 0.223367,0.01864 0.223367,0.01864 5e-5,0 -0.325707,0.828336 -0.325707,0.828336 0,0 -0.06517,0.130292 -0.06517,0.130292 0,0 -0.511903,-0.04654 -0.511903,-0.04654 -0.151152,0 -0.262185,0.02335 -0.335071,0.07449 -0.0048,0.0036 -0.01415,0.01469 -0.01859,0.01859 -0.0098,0.0086 -0.02621,0.02349 -0.03723,0.03728 -0.04485,0.05876 -0.09939,0.163785 -0.139611,0.353659 0,0 -0.01936,0.08039 -0.03723,0.148924 0.235267,0 0.800385,0 0.800385,0 0,0 -0.20473,0.921411 -0.20473,0.921411 0,0 -0.585252,0 -0.781801,0 -0.05958,0.268034 -0.79112,3.545973 -0.79112,3.545973 0,0 -1.079656,0 -1.079656,0 0,0 0.701772,-3.149874 0.79112,-3.545973 -0.181693,0 -0.623557,0 -0.623557,0 0,0 0.204729,-0.921411 0.204729,-0.921411 0,0 0.444504,0 0.614293,0 0.02975,-0.128065 0.07443,-0.288535 0.07443,-0.288535 0.06554,-0.297854 0.13402,-0.511898 0.223367,-0.660827 0.122166,-0.205505 0.29449,-0.377466 0.511899,-0.502579 0.179108,-0.104049 0.405577,-0.16627 0.660828,-0.186146 z m 2.578085,0.04654 c 0,0 -0.282219,1.269886 -0.353654,1.591552 0.208457,0 0.697995,0 0.697995,0 0,0 -0.20473,0.92141 -0.20473,0.92141 0,0 -0.513404,0 -0.698049,0 -0.05658,0.256076 -0.50258,2.243011 -0.50258,2.243011 0,0 -0.03723,0.238631 -0.03723,0.307119 5.4e-5,0.0023 -2.04e-4,0.0076 0,0.0093 1.54e-4,9.07e-4 -2.04e-4,0.0087 0,0.0093 2.58e-4,4.54e-4 0.0089,-3.63e-4 0.0093,0 0,0 0.111704,0.0093 0.111704,0.0093 0,0 0.511903,-0.03723 0.511903,-0.03723 0,0 -0.05585,0.828335 -0.05585,0.828335 0,0 0.0093,0.148925 0.0093,0.148925 0,0 -0.735266,0.08376 -0.735266,0.08376 -0.291851,0 -0.505949,-0.04762 -0.660829,-0.148925 -0.16378,-0.107206 -0.259082,-0.249401 -0.2978,-0.428096 -0.0059,-0.03279 -0.01864,-0.08044 -0.01864,-0.148925 0,-0.13402 0.0253,-0.360747 0.111709,-0.753898 0,0 0.391238,-1.752698 0.474632,-2.121984 -0.139973,0 -0.511849,0 -0.511849,0 0,0 0.20473,-0.92141 0.20473,-0.92141 0,0 0.362973,0 0.511899,0 0.04767,-0.214461 0.214048,-0.949363 0.214048,-0.949363 0,0 0.865608,-0.456044 0.865608,-0.456044 0,0 0.353654,-0.186146 0.353654,-0.186146 z m -34.296873,0.03723 c 0,0 4.188219,0 4.188219,0 0,0 -0.232677,1.042437 -0.232677,1.042437 0,0 -2.794007,0 -3.062055,0 -0.04764,0.211459 -0.238627,1.067697 -0.307129,1.377455 0.38718,0 2.652533,0 2.652533,0 0,0 -0.232682,1.042383 -0.232682,1.042383 0,0 -2.384484,0 -2.652532,0 -0.05659,0.259132 -0.567739,2.559444 -0.567739,2.559444 0,0 -1.126169,0 -1.126169,0 0,0 1.340231,-6.021719 1.340231,-6.021719 z m 5.61222,1.470579 c 0.04202,-0.0052 0.08794,0 0.130287,0 0.268048,0 0.515631,0.08153 0.75389,0.251269 0,0 0.148916,0.10239 0.148916,0.10239 0,0 -0.577049,0.949308 -0.577049,0.949308 0,0 -0.158226,-0.111709 -0.158226,-0.111709 -0.116143,-0.07444 -0.241229,-0.111654 -0.372279,-0.111654 -0.113177,0 -0.218528,0.04022 -0.325747,0.111654 -0.113178,0.07449 -0.207741,0.173154 -0.279208,0.307174 -0.125091,0.229316 -0.216684,0.486172 -0.279227,0.763162 0,0 -0.502593,2.289546 -0.502593,2.289546 0,0 -1.079624,0 -1.079624,0 0,0 0.995877,-4.467384 0.995877,-4.467384 0,0 1.005168,0 1.005168,0 0,0 -0.03464,0.135471 -0.04654,0.186096 0.04766,-0.03573 0.09791,-0.08484 0.13962,-0.111658 0.144249,-0.08608 0.296621,-0.139815 0.446739,-0.158194 z m 3.201656,0 c 0.065,-0.0049 0.128995,0 0.195456,0 0.607563,0 1.067331,0.21291 1.368142,0.632875 0.187634,0.270986 0.288536,0.606062 0.288536,1.005163 0,0.220365 -0.02716,0.457549 -0.08377,0.716631 0,0 -0.08376,0.325752 -0.08376,0.325752 0,0 -2.730348,0 -3.034144,0 -0.0059,0.06253 -0.0093,0.129566 -0.0093,0.186146 0,0.232318 0.04767,0.4151 0.148912,0.549119 0.04812,0.06553 0.103908,0.124546 0.167531,0.167508 0.119961,0.07827 0.274809,0.121027 0.456067,0.121027 0.220383,0 0.413975,-0.06072 0.59565,-0.176827 0.172733,-0.110207 0.338033,-0.286309 0.483974,-0.530535 0,0 1.154085,0 1.154085,0 0,0 -0.102367,0.223362 -0.102367,0.223362 -0.220402,0.446779 -0.52792,0.795209 -0.912112,1.042438 -0.384191,0.247174 -0.843224,0.381556 -1.34954,0.381556 -0.658194,0 -1.148126,-0.21291 -1.451908,-0.632875 -0.300811,-0.411009 -0.36559,-0.979124 -0.20477,-1.693892 0.160847,-0.726721 0.481742,-1.30747 0.949332,-1.712525 0.419109,-0.36339 0.89468,-0.564959 1.424001,-0.604923 z m 4.849047,0 c 0.06497,-0.0049 0.128995,0 0.195411,0 0.607613,0 1.067385,0.21291 1.368192,0.632875 0.187643,0.270986 0.288482,0.606062 0.288482,1.005163 0,0.217412 -0.02716,0.451182 -0.08376,0.707312 0,0 -0.08375,0.335071 -0.08375,0.335071 0,0 -2.730348,0 -3.03413,0 -0.0032,0.04172 -0.0063,0.0793 -0.0093,0.120973 -0.0023,0.01564 9.07e-4,0.03941 0,0.05585 -8.6e-5,0.0027 0,0.0067 0,0.0093 0,0.04467 0.0063,0.08862 0.0093,0.130292 0.01487,0.169789 0.0592,0.311622 0.139606,0.418827 0.01533,0.02086 0.0297,0.04659 0.04653,0.06517 0.136409,0.145923 0.329475,0.223363 0.577049,0.223363 0.220397,0 0.416946,-0.06072 0.595637,-0.176827 0.172791,-0.110208 0.338073,-0.286309 0.484001,-0.530536 0,0 1.163358,0 1.163358,0 0,0 -0.111659,0.223362 -0.111659,0.223362 -0.220415,0.44678 -0.527897,0.79521 -0.912093,1.042438 -0.384196,0.247174 -0.843247,0.381556 -1.349536,0.381556 -0.658212,0 -1.148144,-0.212909 -1.451921,-0.632875 -0.196563,-0.268038 -0.288518,-0.609426 -0.288518,-1.014481 0,-0.06253 0.0032,-0.129929 0.0093,-0.195465 0.01193,-0.154824 0.03573,-0.311209 0.07446,-0.483946 0.160824,-0.723719 0.472428,-1.307469 0.940018,-1.712525 0.419095,-0.36339 0.903972,-0.564958 1.43332,-0.604923 z m 13.206812,0 c 0.06652,-0.0051 0.127703,0 0.195466,0 0.619516,0 1.09565,0.209545 1.405358,0.623556 0.306807,0.413962 0.381244,0.972399 0.223413,1.675259 -0.122111,0.54803 -0.298576,0.990669 -0.539851,1.312336 -0.241225,0.321661 -0.548707,0.584471 -0.912093,0.763162 -0.360334,0.178691 -0.741946,0.269902 -1.126142,0.269902 -0.631425,0 -1.101599,-0.215912 -1.405408,-0.632875 -0.196549,-0.265086 -0.297801,-0.60642 -0.297801,-1.014481 0,-0.220361 0.02417,-0.454543 0.08375,-0.716627 0.178691,-0.798212 0.543529,-1.406132 1.079606,-1.796282 0.393515,-0.284087 0.828129,-0.44818 1.2937,-0.48395 z m 16.352706,0 c 0.07853,-0.0049 0.151206,0 0.232681,0 0.375245,0 0.670093,0.03796 0.89346,0.130292 0.238273,0.0953 0.407283,0.230042 0.50258,0.390875 0.09235,0.151877 0.139611,0.338435 0.139611,0.567752 0,0 -0.111654,0.67941 -0.111654,0.67941 0,0 -0.204784,0.921411 -0.204784,0.921411 -0.175739,0.786253 -0.214407,1.081101 -0.223363,1.191308 -0.0089,0.148925 0.0048,0.294077 0.04653,0.428146 0,0 0.07444,0.241946 0.07444,0.241946 0,0 -1.09824,0 -1.09824,0 0,0 -0.04654,-0.139606 -0.04654,-0.139606 -0.01787,-0.06549 -0.01265,-0.148875 -0.01859,-0.223367 -0.208507,0.128065 -0.417327,0.241637 -0.604974,0.307119 -0.276991,0.09535 -0.564389,0.148929 -0.856289,0.148929 -0.506258,0 -0.881189,-0.131793 -1.107559,-0.390875 -0.172687,-0.190599 -0.251264,-0.423643 -0.251264,-0.688729 0,-0.101252 0.01342,-0.206231 0.03723,-0.316433 0.05063,-0.226369 0.142612,-0.435964 0.288536,-0.623611 0.142971,-0.184645 0.311985,-0.336522 0.502579,-0.446729 0.184646,-0.110203 0.390513,-0.188368 0.604974,-0.241996 0,0 0.660829,-0.111659 0.660829,-0.111659 0.509259,-0.05958 0.889369,-0.133656 1.163358,-0.214097 0.0059,-0.02975 0.01864,-0.06512 0.01864,-0.06512 0.04317,-0.191633 0.03777,-0.335692 -0.0093,-0.409508 -0.0036,-0.0048 -0.01469,-0.01456 -0.01864,-0.01864 -0.01002,-0.0107 -0.02549,-0.02753 -0.03723,-0.03723 -0.112017,-0.08862 -0.303029,-0.130292 -0.558439,-0.130292 -0.288899,0 -0.50258,0.04726 -0.651455,0.139606 -0.145978,0.0923 -0.281085,0.261309 -0.400245,0.502584 0,0 -1.126141,0 -1.126141,0 0,0 0.10234,-0.223363 0.10234,-0.223363 0.134019,-0.309758 0.293764,-0.566668 0.493315,-0.763216 0.199555,-0.196549 0.469091,-0.348843 0.781801,-0.456049 0.23962,-0.07909 0.501342,-0.131584 0.781802,-0.148875 z m 4.71871,0 c 0.04204,-0.0052 0.08795,0 0.130292,0 0.271041,0 0.524945,0.08153 0.763218,0.251269 0,0 0.139606,0.10239 0.139606,0.10239 0,0 -0.577072,0.949308 -0.577072,0.949308 0,0 -0.158189,-0.111709 -0.158189,-0.111709 -0.116162,-0.07444 -0.234963,-0.111654 -0.362974,-0.111654 -0.113209,0 -0.224918,0.04022 -0.335076,0.111654 -0.113209,0.07449 -0.19546,0.173154 -0.269898,0.307174 -0.122116,0.229316 -0.216688,0.486172 -0.279221,0.763162 0,0 -0.511899,2.289546 -0.511899,2.289546 0,0 -1.079656,0 -1.079656,0 0,0 0.995899,-4.467384 0.995899,-4.467384 0,0 1.005169,0 1.005169,0 0,0 -0.0253,0.135471 -0.03723,0.186096 0.04762,-0.03573 0.09494,-0.08484 0.139611,-0.111658 0.141937,-0.08608 0.287397,-0.139815 0.437411,-0.158194 z m 3.192374,0 c 0.06491,-0.0049 0.128999,0 0.195415,0 0.607613,0 1.070337,0.21291 1.368188,0.632875 0.190599,0.270986 0.288486,0.606062 0.288486,1.005163 0,0.220365 -0.03646,0.457549 -0.09307,0.716631 0,0 -0.07444,0.325752 -0.07444,0.325752 0,0 -2.733328,0 -3.034134,0 -0.0059,0.06253 -0.01864,0.129566 -0.01864,0.186146 0,0.232318 0.05068,0.4151 0.148925,0.549119 0.01533,0.02086 0.039,0.04659 0.05585,0.06517 0.0098,0.01038 0.02694,0.02753 0.03723,0.03723 0.13314,0.121027 0.314371,0.186146 0.539806,0.186146 0.22041,0 0.414012,-0.06072 0.595655,-0.176827 0.172791,-0.110208 0.335071,-0.286309 0.483996,-0.530536 0,0 1.163413,0 1.163413,0 0,0 -0.111709,0.223363 -0.111709,0.223363 -0.220415,0.446779 -0.530899,0.795209 -0.912093,1.042438 -0.387198,0.247174 -0.840245,0.381556 -1.349554,0.381556 -0.658189,0 -1.138825,-0.21291 -1.44258,-0.632875 -0.300802,-0.41101 -0.371925,-0.979124 -0.214098,-1.693892 0.160833,-0.726722 0.472455,-1.30747 0.940045,-1.712525 0.42173,-0.36339 0.904484,-0.564959 1.433311,-0.604923 z m -16.296851,0.08376 c 0,0 1.107558,0 1.107558,0 0,0 0.136605,2.651018 0.139607,2.68974 0.04467,-0.09494 0.07936,-0.174809 0.08376,-0.186146 0,0 1.219263,-2.503594 1.219263,-2.503594 0,0 1.014483,0 1.014483,0 0,0 0.09307,2.618976 0.09307,2.633886 0.02975,-0.05358 1.386721,-2.633886 1.386721,-2.633886 0,0 1.098239,0 1.098239,0 0,0 -2.419841,4.467384 -2.419841,4.467384 0,0 -0.995846,0 -0.995846,0 0,0 -0.09644,-2.422423 -0.102394,-2.559444 -0.41101,0.842878 -1.247164,2.559444 -1.247164,2.559444 0,0 -1.023802,0 -1.023802,0 0,0 -0.353655,-4.467384 -0.353655,-4.467384 z m -26.004183,0.846919 c -0.256552,0.01084 -0.489565,0.103324 -0.707346,0.279221 -0.172732,0.137021 -0.289266,0.325027 -0.381588,0.530481 0,5.5e-5 1.833501,0 1.833501,0 0.0032,-0.03269 0.0093,-0.07257 0.0093,-0.102339 0,-0.169785 -0.03016,-0.301578 -0.08377,-0.390925 -0.131026,-0.214407 -0.325367,-0.316438 -0.61427,-0.316438 -0.01732,0 -0.03873,-9.07e-4 -0.05584,0 z m 4.849016,0 c -0.256548,0.01084 -0.489538,0.103324 -0.707341,0.279221 -0.172733,0.137021 -0.286278,0.325027 -0.381589,0.530481 0,5.5e-5 1.83351,0 1.83351,0 0.0032,-0.03269 0.0093,-0.07257 0.0093,-0.102339 0,-0.169785 -0.02716,-0.301578 -0.08376,-0.390925 -0.02603,-0.04353 -0.06124,-0.08686 -0.09307,-0.120973 -0.124392,-0.128478 -0.295524,-0.195465 -0.521217,-0.195465 -0.01732,0 -0.03873,-9.07e-4 -0.05586,0 z m 37.507872,0 c -0.263844,0.0081 -0.510243,0.09747 -0.735316,0.279221 -0.169735,0.137021 -0.286259,0.325027 -0.381557,0.530481 0,5.5e-5 1.824187,0 1.824187,0 0.0032,-0.03269 0.0093,-0.07257 0.0093,-0.102339 0,-0.169785 -0.02716,-0.301578 -0.08376,-0.390925 -0.128065,-0.211459 -0.325394,-0.313436 -0.614293,-0.316438 -0.0085,1.04e-4 -0.01011,-2.58e-4 -0.01859,0 z m -24.384762,0.01864 c -0.246195,0.0292 -0.475149,0.141574 -0.688731,0.335021 -0.25613,0.232318 -0.441914,0.597155 -0.54912,1.079649 -0.04467,0.202503 -0.06517,0.375657 -0.06517,0.530486 0,0.211459 0.04059,0.377516 0.121023,0.502579 0.02136,0.03215 0.0498,0.06605 0.07444,0.09307 0.132415,0.14059 0.317268,0.214098 0.54912,0.214098 0.300807,0 0.565894,-0.112071 0.819023,-0.344389 0.25613,-0.235271 0.438912,-0.603835 0.549119,-1.098238 0.101252,-0.452679 0.08712,-0.790702 -0.05585,-1.005163 -0.136972,-0.208456 -0.337298,-0.307118 -0.614243,-0.307118 -0.047,0 -0.094,-0.0054 -0.139606,0 z M 66.98813,40.83324 c -0.253129,0.06854 -0.536853,0.126201 -0.912093,0.176881 -0.279943,0.04167 -0.479498,0.08562 -0.595655,0.130287 -0.101252,0.04167 -0.182782,0.09939 -0.25132,0.176832 -0.06548,0.07444 -0.109427,0.152598 -0.130292,0.241995 -0.0059,0.03573 -0.0093,0.07257 -0.0093,0.10234 0,0.0023 -5.4e-5,0.0069 0,0.0093 3.09e-4,0.0071 -9.07e-4,0.02109 0,0.02793 0.0018,0.01347 0.0056,0.03392 0.0093,0.04648 0.0014,0.0041 0.0078,0.0146 0.0093,0.01864 0.0032,0.008 0.0053,0.02032 0.0093,0.02793 0.0041,0.0075 0.0136,0.02063 0.01859,0.02789 0.0078,0.0107 0.01841,0.02716 0.02793,0.03723 0.07444,0.08339 0.223,0.120973 0.437411,0.120973 0.235321,0 0.461635,-0.04467 0.670142,-0.148875 0.20551,-0.101302 0.371155,-0.252458 0.493266,-0.428146 0.08935,-0.125064 0.160833,-0.317576 0.223367,-0.567752 z M 10.138621,33.37082 35.117102,7.5809406 h 4.079072 L 33.165072,33.37082 h -3.35508 l 1.712469,-7.423824 H 21.051077 l -7.115916,7.423824 h -3.79654 M 23.595745,23.2906 h 8.564285 l 1.580123,-6.473854 c 0.637715,-2.568414 1.251568,-4.708772 1.841564,-6.421079 -1.179062,1.477744 -2.738983,3.231081 -4.679762,5.260003 l -7.30621,7.63493"
       style="fill:#000000;fill-opacity:1;fill-rule:evenodd;stroke-width:0.453473pt"
       id="path3552" />
  </g>
</svg>
